<svg xmlns="http://www.w3.org/2000/svg" viewBox="0 0 64 64" width="64" height="64" role="img" aria-label="Rooted">
  <title>Rooted</title>
  <g fill="none" stroke="#12171d" stroke-width="4" stroke-linejoin="round" stroke-linecap="round">
    <rect x="4" y="30" width="56" height="8" rx="3" fill="#9c7a52"/>
    <path d="M32 30 V8" stroke-width="10"/>
    <path d="M32 30 V8" stroke="#7fc06a" stroke-width="5"/>
    <path d="M20 12 C26 12 30 16 32 22" fill="none" stroke-width="9"/>
    <path d="M20 12 C26 12 30 16 32 22" fill="none" stroke="#7fc06a" stroke-width="4"/>
    <path d="M32 38 V58 M32 42 C24 46 20 52 18 58 M32 42 C40 46 44 52 46 58" fill="none" stroke-width="9"/>
    <path d="M32 38 V58 M32 42 C24 46 20 52 18 58 M32 42 C40 46 44 52 46 58" fill="none" stroke="#3f7a41" stroke-width="4"/>
  </g>
</svg>
